<svg width="388" height="801" viewBox="0 0 388 801" fill="none" xmlns="http://www.w3.org/2000/svg">
<path d="M16 0C7.16344 0 0 7.16344 0 16L0 344.145C0 349.41 2.59063 354.338 6.92781 357.324L179.932 476.413C185.638 480.341 193.224 480.151 198.726 475.942L353.722 357.358C357.679 354.331 360 349.633 360 344.651L360 16C360 7.16346 352.837 0 344 0L16 0Z" fill="#2563EB"/>
<path d="M44 801C35.1634 801 28 793.837 28 785L28 284.017C28 278.666 30.6746 273.67 35.1271 270.702L210.508 153.826C216.188 150.04 223.644 150.276 229.075 154.412L381.694 270.65C385.668 273.676 388 278.384 388 283.378L388 785C388 793.837 380.837 801 372 801L44 801Z" fill="#2563EB"/>
</svg>
