<svg width="1512" height="688" viewBox="0 0 1512 688" fill="none" xmlns="http://www.w3.org/2000/svg">
<path d="M0 24C0 10.7452 10.7452 0 24 0H862.021C869.384 0 876.339 3.37982 880.889 9.16862L1119.55 312.792C1126.52 321.669 1126.37 334.208 1119.18 342.911L880.882 631.288C876.322 636.805 869.538 640 862.381 640H24C10.7451 640 0 629.255 0 616V24Z" fill="#2563EB"/>
<path d="M1512 72C1512 58.7452 1501.25 48 1488 48H564.764C557.782 48 551.146 51.0408 546.587 56.3292L284.852 359.932C276.941 369.108 277.11 382.742 285.247 391.72L546.623 680.117C551.172 685.137 557.632 688 564.406 688H1488C1501.25 688 1512 677.255 1512 664V72Z" fill="#2563EB"/>
</svg>
