<?xml version="1.0" encoding="UTF-8"?>
<!DOCTYPE svg PUBLIC "-//W3C//DTD SVG 1.1//EN" "http://www.w3.org/Graphics/SVG/1.1/DTD/svg11.dtd">
<!-- Creator: CorelDRAW -->
<svg xmlns="http://www.w3.org/2000/svg" xml:space="preserve" width="887px" height="228px" version="1.1" style="shape-rendering:geometricPrecision; text-rendering:geometricPrecision; image-rendering:optimizeQuality; fill-rule:evenodd; clip-rule:evenodd"
viewBox="0 0 846.767 217.895"
 xmlns:xlink="http://www.w3.org/1999/xlink"
 xmlns:xodm="http://www.corel.com/coreldraw/odm/2003">
 <defs>
  <style type="text/css">
   <![CDATA[
    .fil4 {fill:#FDBC35}
    .fil16 {fill:#FBB038}
    .fil11 {fill:#ED3237}
    .fil18 {fill:#E72E6F}
    .fil10 {fill:#E42E6F}
    .fil12 {fill:#7C4699}
    .fil3 {fill:#4097D2}
    .fil15 {fill:#3D95D1}
    .fil19 {fill:#42A553}
    .fil17 {fill:#3A82C3}
    .fil2 {fill:#2A2A28}
    .fil1 {fill:#282828}
    .fil0 {fill:#3C4A7E}
    .fil7 {fill:url(#id0)}
    .fil8 {fill:url(#id1)}
    .fil13 {fill:url(#id2)}
    .fil6 {fill:url(#id3)}
    .fil5 {fill:url(#id4)}
    .fil9 {fill:url(#id5)}
    .fil14 {fill:url(#id6)}
   ]]>
  </style>
  <linearGradient id="id0" gradientUnits="userSpaceOnUse" x1="193.974" y1="52.244" x2="322.144" y2="56.319">
   <stop offset="0" style="stop-opacity:1; stop-color:#45B653"/>
   <stop offset="0.278431" style="stop-opacity:1; stop-color:#91CD61"/>
   <stop offset="1" style="stop-opacity:1; stop-color:#DEE570"/>
  </linearGradient>
  <radialGradient id="id1" gradientUnits="userSpaceOnUse" gradientTransform="matrix(1.59766 0.29266 -0.207271 1.13151 -25 -48)" cx="94.325" cy="151.321" r="4.463" fx="94.325" fy="151.321">
   <stop offset="0" style="stop-opacity:1; stop-color:#7497CE"/>
   <stop offset="1" style="stop-opacity:1; stop-color:#3D4364"/>
  </radialGradient>
  <radialGradient id="id2" gradientUnits="userSpaceOnUse" gradientTransform="matrix(1.54244 0.282546 -0.243267 1.32802 -147 -103)" cx="297.263" cy="56.834" r="5.168" fx="297.263" fy="56.834">
   <stop offset="0" style="stop-opacity:1; stop-color:#63C8D4"/>
   <stop offset="1" style="stop-opacity:1; stop-color:#265EA9"/>
  </radialGradient>
  <radialGradient id="id3" gradientUnits="userSpaceOnUse" gradientTransform="matrix(1.99321 0.365124 -0.281142 1.5348 -224 -146)" cx="254.116" cy="99.274" r="4.969" fx="254.116" fy="99.274">
   <stop offset="0" style="stop-opacity:1; stop-color:#94D7E9"/>
   <stop offset="1" style="stop-opacity:1; stop-color:#29B787"/>
  </radialGradient>
  <radialGradient id="id4" gradientUnits="userSpaceOnUse" gradientTransform="matrix(0.414574 -2.2632 0.814033 0.149115 116 784)" cx="314.878" cy="83.697" r="3.14" fx="314.878" fy="83.697">
   <stop offset="0" style="stop-opacity:1; stop-color:#7EC24D"/>
   <stop offset="1" style="stop-opacity:1; stop-color:#59B952"/>
  </radialGradient>
  <radialGradient id="id5" gradientUnits="userSpaceOnUse" gradientTransform="matrix(1.90181 0.348381 -0.173769 0.94864 -73 -31)" cx="119.746" cy="199.84" r="5.235" fx="119.746" fy="199.84">
   <stop offset="0" style="stop-opacity:1; stop-color:#F9ED48"/>
   <stop offset="0.760784" style="stop-opacity:1; stop-color:#FBD755"/>
   <stop offset="1" style="stop-opacity:1; stop-color:#FDC161"/>
  </radialGradient>
  <radialGradient id="id6" gradientUnits="userSpaceOnUse" gradientTransform="matrix(1.94246 0.35583 -0.200473 1.09443 -192 -99)" cx="237.369" cy="158.962" r="5.099" fx="237.369" fy="158.962">
   <stop offset="0" style="stop-opacity:1; stop-color:#5999D1"/>
   <stop offset="0.611765" style="stop-opacity:1; stop-color:#4A7DBE"/>
   <stop offset="1" style="stop-opacity:1; stop-color:#3C62AC"/>
  </radialGradient>
 </defs>
 <g id="Layer_x0020_1">
  <metadata id="CorelCorpID_0Corel-Layer"/>
  <g id="_1491985276896">
   <path class="fil0" d="M523.276 102.954l-12.53 67.138c7.56,3.169 31.757,2.84 41.103,-2.929 5.311,-3.28 9.038,-8.39 10.37,-16.428 1.996,-12.091 -4.75,-13.929 -7.504,-16.765 7.508,-5.264 14.47,-20.701 4.15,-28.107 -7.786,-5.585 -27.069,-4.509 -35.589,-2.909zm6.219 54.76l0 0c0.49,-2.372 2.048,-13.529 3.022,-14.667 1.906,-2.245 10.317,0.13 11.883,2.102 3.397,4.281 -0.918,15.702 -14.905,12.565zm7.342 -39.863l0 0c0.267,-1.327 -0.256,-4.702 6.765,-2.426 6.677,2.161 4.735,15.31 -8.693,13.016l1.928 -10.59z"/>
   <path class="fil0" d="M451.909 102.556c-5.343,28.549 -2.009,24.858 -12.758,24.801 -2.588,-0.015 -6.042,0.221 -8.324,-0.398l4.408 -24.589c-5.598,-0.94 -12.059,-1.229 -16.619,-0.078l-12.486 67.194c5.671,1.845 11.995,1.016 16.745,0.432l5.043 -27.428 16.477 -0.12 -4.874 27.337c5.431,1.786 12.27,1.44 16.897,0.203l12.331 -67.064c-5.002,-1.673 -12.201,-1.254 -16.84,-0.29z"/>
   <path class="fil0" d="M592.283 103.209l-33.67 67.189c5.237,1.57 11.323,1.509 15.91,0.594l6.346 -12.817c3.68,0.709 6.511,1.371 10.058,1.226 2.789,-0.115 6.395,-1.167 8.887,-0.964l1.033 12.263c4.847,1.894 12.866,1.178 17.24,0.442 0.346,-3.815 -7.82,-66.012 -8.662,-67.668 -7.006,-1.258 -10.648,-0.675 -17.142,-0.265zm4.693 18.707l0 0c0,0 1.403,21.374 1.455,24.374 -1.158,2.855 -11.851,1.104 -12.283,-0.15l10.828 -24.224z"/>
   <path class="fil0" d="M476.95 102.416c-2.019,4.281 -11.351,58.899 -12.695,67.764 5.809,0.724 14.233,0.272 20.466,0.307 21.541,0.135 22.431,3.25 22.78,-13.963 -4.122,-1.913 -17.937,0.118 -23.589,-0.994 0.495,-3.056 1.408,-11.122 2.857,-12.738l17.25 -0.155c2.794,-3.54 3.03,-10.264 3.106,-14.632l-18.084 -0.383 1.865 -10.156 22.891 0.066c2.073,-5.467 2.589,-8.907 2.863,-14.612l-39.71 -0.504z"/>
   <path class="fil0" d="M630.048 103.489c-1.687,4.236 -3.198,9.675 -2.671,14.25 3.039,1.795 11.345,-0.03 15.695,1.017l-9.577 52.346c6.027,1.507 11.419,1.171 16.629,0.158 2.539,-10.377 7.026,-46.263 10.068,-52.332 3.755,-1.018 13.779,0.356 15.253,-0.782 1.827,-1.416 4.893,-13.276 1.852,-14.11 -2.789,-0.766 -45.117,-0.565 -47.249,-0.547z"/>
   <g>
    <path class="fil0" d="M434.907 18.829c-1.965,4.812 -11.826,62.43 -13.651,72.527 21.599,4.148 51.524,4.145 55.601,-21.303 0.674,-4.239 0.284,-7.974 -1.244,-11.056 -1.869,-3.773 -4.553,-4.045 -6.77,-6.988 10.675,-8.986 13.715,-23.035 4.447,-29.977 -7.722,-5.782 -29.947,-5.384 -38.383,-3.203zm8.456 48.56l0 0c1.199,-6.535 0.215,-6.974 7.83,-5.956 5.119,0.69 7.894,2.242 7.391,7.328 -0.851,8.57 -9.398,10.71 -17.073,9.034l1.852 -10.406zm3.885 -21.108l0 0 2.892 -14.508c7.284,-0.471 12.769,1.619 9.722,9.565 -1.793,4.683 -6.92,5.838 -12.614,4.943z"/>
    <path class="fil0" d="M553.569 92.209c2.343,0.449 14.951,2.262 17.132,-0.245l6.462 -13.192c15.9,2.803 10.486,0.495 20.372,0.164l1.224 13.636c6.636,1.362 12.447,1.195 18.477,0.104l-8.802 -72.746c-5.065,-1.018 -9.437,-1.038 -13.815,-0.739 -6.975,0.476 -5.348,0.3 -8.37,6.535 -4.077,8.405 -32.084,63.039 -32.68,66.483zm40.346 -52.093l0 0c0,0 1.513,23.007 1.567,26.238 -1.246,3.071 -12.756,1.188 -13.222,-0.162l11.655 -26.076z"/>
    <path class="fil0" d="M508.869 73.581c-2.028,4.884 -5.139,10.106 -6.432,15.888 12.788,4.112 23.393,6.037 35.101,2.022 9.418,-3.234 17.993,-10.838 19.183,-24.798 1.192,-13.968 -9.748,-15.766 -21.008,-21.629 -6.964,-3.628 -3.77,-10.146 2.205,-11.51 7.178,-1.636 11.53,1.155 17.861,3.189 2.098,-3.341 6.447,-10.759 6.533,-14.792 -12.805,-4.155 -22.912,-5.919 -33.843,-1.168 -7.217,3.133 -17.951,13.863 -15.373,27.529 2.662,14.139 20.76,13.33 23.338,19.004 3.025,6.653 -4.503,9.635 -9.208,10.155 -7.58,0.844 -11.456,-1.906 -18.357,-3.89z"/>
    <path class="fil0" d="M491.855 19.341l-13.369 72.147c4.969,1.872 13.712,1.847 17.752,0.106l13.48 -72.351c-5.672,-0.832 -13.534,-1.491 -17.863,0.098z"/>
   </g>
   <path class="fil0" d="M620.982 92.943c1.832,1.155 17.125,1.997 18.542,1.01 2.169,-2.151 3.489,-14.899 3.697,-18.061 -2.715,-1.227 -10.739,-0.869 -14.201,-1.084 -4.494,-0.28 -5.576,-3.175 -8.038,18.135z"/>
   <path class="fil0" d="M669.177 171.875c1.832,1.156 17.128,1.994 18.545,1.008 2.169,-2.148 3.486,-14.897 3.7,-18.061 -2.719,-1.227 -10.742,-0.866 -14.204,-1.082 -4.494,-0.282 -5.578,-3.177 -8.041,18.135z"/>
   <path class="fil1" d="M531.916 193.641l-3.977 21.111 7.448 0.469 3.248 -16.293 3.814 0.353c1.06,4.344 -1.187,11.098 -1.911,15.675l7.22 0.346c1.663,-4.595 1.381,-13.269 3.589,-16.291 7.329,-0.699 2.416,6.047 1.727,16.004l7.307 0.356c2.478,-10.115 7.416,-26.592 -9.702,-22.441 -3.871,0.937 -1.879,0.567 -6.145,-0.241 -4.729,-0.892 -8.836,0.349 -12.618,0.952z"/>
   <path class="fil2" d="M612.7 193.273l-4.268 22.061c10.256,2.33 20.117,0.453 22.919,-8.925 4.29,-14.382 -8.378,-13.688 -18.651,-13.136zm6.027 5.174l-2.274 11.799c1.592,0.206 7.919,0.327 8.829,-6.037 0.554,-5.056 -2.966,-7.111 -6.555,-5.762z"/>
   <path class="fil1" d="M646.638 194.446l-3.846 21.155 7.33 0.415c1.229,-4.202 1.764,-14.437 3.748,-17.029 1.195,-0.808 2.098,-0.594 2.765,0.456 0.664,4.714 -1.887,4.261 -3.636,6.604l2.851 9.584 8.232 0.431c-0.108,-2.919 -2.534,-6.829 -2.509,-8.605 0.014,-1.455 10.114,-13.367 -4.742,-14.346 -2.632,-0.171 -8.407,-0.726 -10.193,1.335z"/>
   <path class="fil1" d="M731.473 194.088l-4.165 22.055 7.548 0.368c0.787,-4.3 1.496,-14.193 3.62,-16.933 1.259,-0.304 2.255,-0.184 2.9,0.498 0.086,4.01 -1.972,4.589 -3.704,6.135l2.629 9.881c2.937,0.679 5.64,0.92 8.265,0.095l-2.784 -9.064c2.769,-3.095 6.775,-9.056 0.988,-12.172 -4.067,-2.186 -11.242,-1.136 -15.297,-0.863z"/>
   <path class="fil1" d="M588.79 194.9l-3.702 20.262 7.482 0.41 3 -16.186 4.264 0.292c0.814,4.318 -1.278,10.821 -1.999,15.536 2.637,0.839 4.955,0.507 7.346,0.252 1.605,-5.536 4.318,-16.561 1.234,-20.169 -2.982,-3.496 -14.509,-3.807 -17.625,-0.397z"/>
   <path class="fil1" d="M470.196 192.02l-3.154 16.423 -4.187 -0.412c-0.994,-4.734 1.234,-10.767 1.898,-15.609 -2.551,-0.591 -4.803,-0.812 -7.263,-0.086 -1.607,4.862 -4.163,16.191 -1.636,19.735 3.265,4.585 13.445,2.804 17.784,1.558l3.903 -21.195 -7.345 -0.414z"/>
   <path class="fil1" d="M480.654 193.565l-3.8 20.707c2.662,0.92 4.651,0.824 7.362,0.345l3.157 -16.156c6.771,0.086 4.514,2.898 2.174,16.056l7.285 0.503c1.629,-5.431 4.313,-17 1.518,-20.341 -3.716,-4.433 -13.44,-2.549 -17.696,-1.114z"/>
   <path class="fil1" d="M413.158 192.849l-4.053 21.236 7.507 0.356c1.128,-5.934 1.756,-16.495 4.85,-16.428 5.215,0.113 1.067,12.218 0.407,15.829 2.475,1.102 5.37,0.766 7.548,0.381 0.905,-5.427 4.217,-15.938 1.511,-19.696 -3.518,-4.882 -13.131,-2.411 -17.77,-1.678z"/>
   <path class="fil1" d="M829.819 194.848l-4.217 21.862 7.393 0.508 1.352 -6.594c2.524,-0.407 5.561,0.329 7.68,-0.648l1.176 -5.504 -7.671 -0.457c1.126,-5.88 1.827,-1.817 10.045,-3.164l1.19 -5.559c-2.399,-0.608 -14.616,-0.878 -16.948,-0.444z"/>
   <path class="fil1" d="M795.137 200.049c2.252,1.089 3.915,0.579 6.358,0.768l-2.757 15.822 7.549 0.284 2.946 -16.023 6.657 -0.199 1.2 -5.507c-2.873,-1.168 -9.749,-0.623 -13.085,-0.65 -6.819,-0.049 -8.326,-1.967 -8.868,5.505z"/>
   <path class="fil1" d="M433.852 197.88l6.478 0.51 -2.769 15.749c8.995,1.938 7.509,0.655 9.699,-12.071 0.94,-5.476 2.039,-3.528 7.46,-3.69l1.128 -5.98c-4.258,-0.43 -8.897,-0.216 -13.109,-0.255 -7.398,-0.072 -8.141,-2.029 -8.887,5.737z"/>
   <path class="fil2" d="M636.706 193.197l-4.195 22.112c0,0 7.372,1.136 7.654,-0.027 0.284,-1.165 3.812,-21.967 3.812,-21.967 0,0 -5.647,-0.998 -7.271,-0.118z"/>
   <path class="fil2" d="M819.315 194.718l-4.195 22.112c0,0 7.371,1.136 7.656,-0.027 0.287,-1.163 3.81,-21.969 3.81,-21.969 0,0 -5.643,-0.996 -7.271,-0.116z"/>
   <path class="fil2" d="M670.266 194.196l-4.192 22.114c0,0 7.371,1.136 7.659,-0.029 0.284,-1.163 3.807,-21.968 3.807,-21.968 0,0 -5.643,-0.995 -7.274,-0.117z"/>
   <path class="fil1" d="M307.235 196.693c1.174,0.446 1.53,0.4 4.064,1.018 -0.726,7.489 -0.39,10.232 -7.403,9.643l-1.359 6.378c0.748,0.014 1.523,0.051 2.355,0.132 13.793,1.337 13.138,-10.413 15.4,-22.34 -6.344,-0.711 -10.126,-0.78 -11.576,-0.49 -0.731,1.199 -1.128,3.061 -1.481,5.659zm-6.03 13.973l0 0 0.471 3.051c-2.38,-0.005 -4.521,0.115 -7.249,-0.451l-2.752 -10.171c2.431,-1.768 4.332,-2.254 3.542,-6.191 -0.68,-0.871 -1.823,-0.895 -3.216,-0.469l-3.3 17.106 -7.256 -0.334 3.876 -21.097c1.35,-2.722 26.763,-3.424 15.744,10.551 -0.508,0.976 -1.887,1.121 -1.725,1.646 0.592,1.926 1.146,3.339 1.865,6.359z"/>
   <path class="fil1" d="M278.131 212.28c0.645,-2.706 0.265,-3.3 -0.046,-5.596 -3.945,0.133 -9.513,2.905 -10.347,-1.832 0.287,-0.091 0.581,-0.214 0.89,-0.224 4.17,-0.169 7.654,0.104 12.155,-0.456 5.384,-16.401 -12.241,-16.867 -18.324,-7.96 -3.013,4.406 -3.913,11.939 -0.275,15.207 3.746,3.368 11.76,2.816 15.947,0.861zm-10.413 -11.944l0 0c0,0 0.496,-3.933 5.311,-4.639 4.158,-0.601 3.255,4.516 3.255,4.516l-8.566 0.123z"/>
   <path class="fil2" d="M189.446 191.154l-0.16 5.532c3.346,-0.258 7.681,-2.149 9.655,1.089 -1.324,0.76 -15.979,-0.074 -13.783,10.737 1.364,6.724 13.811,4.832 18.474,3.299 4.95,-17.581 4.624,-24.278 -14.186,-20.657zm9.775 11.164l0 0 -0.952 5.352c-0.679,1.359 -7.45,1.07 -7.536,-1.491 0.999,-4.433 8.488,-3.861 8.488,-3.861z"/>
   <path class="fil1" d="M245.788 201.069l1.776 -10.065c-2.728,-0.746 -5.049,-0.429 -7.526,-0.223l-4.141 22.043 7.474 0.358 2.289 -11.431c1.825,1.997 2.799,7.62 4.403,11.25 2.86,0.559 5.51,0.745 7.816,-0.132 -0.363,-3.776 -3.682,-9.271 -3.236,-11.643 0.233,-1.222 5.895,-8.738 6.81,-10.053 -4.035,-1.309 -7.48,-1.344 -9.611,1.772 -1.786,2.615 -3.793,6.613 -6.054,8.124z"/>
   <path class="fil2" d="M210.915 190.759l-4.374 22.088c3.731,0.505 5.206,0.588 6.758,0.5 0.417,-1.07 0.903,-2.839 1.349,-5.242 1.74,-0.285 2.343,-0.224 4.75,-0.521 1.763,-0.216 3.466,-0.964 4.599,-1.655 8.132,-4.987 6.78,-20.496 -13.082,-15.17zm5.07 4.416l-1.042 7.05c0,0 8.07,1.543 7.526,-4.573 -0.802,-3.479 -5.745,-3.071 -6.484,-2.477z"/>
   <path class="fil1" d="M378.712 206.76c-1.268,3.062 -3.915,1.45 -8.78,0.695 -1.523,1.734 -1.974,2.786 -2.718,5.565 6.71,2.596 14.015,1.492 17.442,-2.102 1.948,-2.043 4.945,-8.593 -2.389,-10.796 -0.484,-0.144 -2.397,-0.65 -2.613,-0.787 -1.7,-1.079 -0.989,-0.15 -1.33,-2.066l7.889 0.852 2.64 -5.4c-16.997,-5.352 -20.471,6.378 -17.871,9.984 1.882,2.608 5.181,2.14 7.73,4.055z"/>
   <path class="fil1" d="M165.347 205.742c-2.596,2.814 -6.003,0.074 -9.104,0.489 -1.157,1.596 -2.166,3.206 -2.195,5.659 18.501,4.481 20.787,-6.96 18.959,-10.514 -1.513,-2.932 -5.34,-2.198 -8.117,-4.313 1.654,-2.757 3.602,-0.792 8.005,-0.289l2.45 -5.539c-17.959,-5.377 -23.718,9.091 -13.99,12.41 0.633,0.218 1.519,0.414 2.071,0.667l1.921 1.43z"/>
   <path class="fil2" d="M177.987 190.886l-4.194 22.115c0,0 7.373,1.131 7.655,-0.03 0.285,-1.162 3.813,-21.967 3.813,-21.967 0,0 -5.647,-0.998 -7.274,-0.118z"/>
   <path class="fil1" d="M351.946 195.233c0,0 -1.348,6.187 -1.182,6.646 0.169,0.461 7.531,1.059 7.727,0.561 0.201,-0.502 1.796,-7.464 1.325,-7.624 -0.469,-0.157 -7.45,-0.113 -7.87,0.417z"/>
   <path class="fil1" d="M511.624 194.74c0,0 -1.347,6.187 -1.18,6.648 0.164,0.459 7.526,1.055 7.727,0.557 0.196,-0.5 1.796,-7.465 1.325,-7.622 -0.474,-0.159 -7.453,-0.115 -7.872,0.417z"/>
   <path class="fil1" d="M686.896 196.531c0,0 -1.347,6.189 -1.183,6.648 0.17,0.458 7.531,1.057 7.727,0.554 0.204,-0.498 1.799,-7.462 1.33,-7.619 -0.473,-0.16 -7.455,-0.115 -7.874,0.417z"/>
   <path class="fil1" d="M245.788 201.069l1.776 -10.065c-2.728,-0.746 -5.049,-0.429 -7.526,-0.223l-4.141 22.043 7.474 0.358 2.289 -11.431c1.825,1.997 2.799,7.62 4.403,11.25 2.86,0.559 5.51,0.745 7.816,-0.132 -0.363,-3.776 -3.682,-9.271 -3.236,-11.643 0.233,-1.222 5.895,-8.738 6.81,-10.053 -4.035,-1.309 -7.48,-1.344 -9.611,1.772 -1.786,2.615 -3.793,6.613 -6.054,8.124z"/>
   <path class="fil1" d="M713.293 204.616l1.776 -10.065c-2.728,-0.745 -5.046,-0.427 -7.523,-0.225l-4.141 22.043 7.469 0.361 2.294 -11.434c1.825,1.997 2.794,7.622 4.406,11.25 2.86,0.561 5.507,0.748 7.815,-0.131 -0.365,-3.78 -3.687,-9.269 -3.238,-11.644 0.231,-1.222 6.032,-8.978 6.942,-10.296 -3.375,-0.444 -6.292,-0.107 -9.071,0.996 -1.791,2.615 -4.465,7.632 -6.729,9.145z"/>
   <g>
    <path class="fil3" d="M48.299 104.634c10.852,-8.529 17.868,-12.974 26.829,-29.27 -3.567,-1.609 -3.54,-1.528 -5.507,-2.703 -4.749,-2.581 -12.683,-4.975 -9.766,-15.685 2.566,-9.429 13.509,-10.666 23.809,-10.717l2.029 -30.31c-26.697,-1.946 -47.584,8.318 -57.814,28.84 -12.972,26.032 -7.438,53.001 20.42,59.845z"/>
    <path class="fil4" d="M362.747 102.861c-16.722,-3.766 -25.74,-14.204 -37.257,-18.646 -10.138,8.765 -3.007,16.347 3.795,40.902 2.801,10.114 9.04,35.857 13.745,42.914 11.303,2.591 29.076,3.005 38.827,-0.058 0.132,-5.876 -16.22,-57 -19.11,-65.112z"/>
    <path class="fil5" d="M280.945 92.082l-14.306 75.458c11.176,2.979 27.263,3.933 35.535,-0.72l16.899 -89.354 -2.389 -0.267c-1.717,1.398 -1.6,1.391 -4.632,2.772 -2.09,0.949 -2.715,1.082 -4.464,1.742l-26.643 10.369z"/>
    <path class="fil6" d="M229.244 88.108l-12.665 79.59c11.674,2.072 25.578,3.93 34.561,-0.942l11.792 -87.58c-10.582,3.413 -19.804,8.674 -33.688,8.932zm-63.272 22.907l0 0c-1.69,-7.656 -1.737,-19.142 -5.362,-25.257l-5.573 26.24 -8.228 37.596 -30.828 -5.196 7.141 -33.339 14.625 -65.024c4.195,3.592 8.424,6.251 12.742,11.282 3.277,3.819 7.045,8.122 11.269,11.426 10.195,7.97 16.379,11.912 30.356,17.52l3.239 7.997 4.486 -7.563 26.032 1.401 -11.517 19.71c-2.904,6.433 -11.176,22.169 -14.623,27.173 -4.702,6.839 -21.53,4.842 -28.948,3.359l-4.811 -27.325z"/>
    <path class="fil7" d="M137.747 46.035c4.195,3.592 5.922,7.129 10.239,12.163 3.283,3.821 7.62,7.725 11.846,11.029 10.193,7.97 18.798,12.241 32.297,17.196 -0.554,-6.854 -10.977,-64.052 -12.918,-67.865 -7.999,-2.239 -19.418,-2.085 -27.717,-0.941 -9.608,1.324 -7.261,2.671 -13.747,28.418zm61.648 41.553l0 0 26.309 0.704 3.538 -4.116 0 4.192c13.886,-0.26 23.081,-5.576 33.658,-8.988l8.77 -59.87c-7.038,-2.389 -24.572,-3.377 -30.482,-1.256 -5.605,2.009 -38.437,62.448 -41.793,69.334z"/>
    <path class="fil8" d="M55.496 106.948c5.61,4.233 13.141,5.663 13.735,13.55 0.672,8.949 -5.736,13.865 -11.147,15.612 -18.982,6.125 -28.725,-3.214 -44.813,-6.138l-13.271 30.754c1.838,1.32 1.71,1.313 4.548,2.389 9.884,-6.856 28.892,-12.65 43.162,-15.868 17.819,-4.021 32.044,-4.033 51.286,-4.397 5.993,-8.193 9.224,-20.137 9.425,-31.703l-52.925 -4.199z"/>
    <path class="fil9" d="M4.379 162.988c11.667,9.017 42.867,9.078 56.251,6.314 14.942,-3.079 32.13,-13.381 38.437,-26.589 -19.249,0.358 -33.538,0.513 -51.357,4.534 -14.27,3.218 -33.45,8.885 -43.331,15.741zm142.43 -13.394l0 0 -30.828 -5.196c-5.12,19.497 -14.051,48.134 -1.503,63.474 2.899,3.547 11.841,10.361 17.424,7.315 2.669,-2.434 3.368,-9.992 4.334,-14.682l10.573 -50.911z"/>
    <path class="fil10" d="M290.826 38.556c3.368,6.915 6.547,15.045 10.369,21.074 4.438,7.011 9.614,10.097 15.256,17.569l2.622 0.267 10.654 -58.037c-12.381,-4.391 -25.623,-1.839 -35.759,-0.365l-3.142 19.492z"/>
    <path class="fil11" d="M74.875 75.251c-8.963,16.294 -16.411,20.631 -27.268,29.165l7.889 2.532 52.925 4.199c-0.3,-10.558 -3.317,-17.831 -9.935,-23.312 -3.093,-2.56 -7.298,-5.023 -11.049,-7.071 -4.683,-2.557 -7.533,-3.648 -12.562,-5.513z"/>
    <path class="fil12" d="M85.168 15.956l-1.717 30.239 23.761 7.035c5.001,-9.54 10.398,-17.407 13.04,-29.775 -11.868,-3.53 -21.955,-7.737 -35.084,-7.499z"/>
    <path class="fil10" d="M335.901 67.821c11.655,-5.802 22.858,-13.124 32.29,-21.104 7.776,-6.581 23.559,-19.418 28.316,-29.091 -8.101,-0.846 -15.867,-0.608 -23.351,0.251 -9.177,1.054 -9.396,6.098 -14.311,13.695 -6.722,10.389 -18.084,25.693 -22.944,36.249z"/>
    <path class="fil13" d="M280.945 92.082l26.643 -10.369c1.749,-0.66 2.374,-0.793 4.464,-1.742 3.032,-1.381 2.915,-1.374 4.632,-2.772 -5.647,-7.472 -10.222,-10.992 -14.657,-18.005 -3.822,-6.028 -7.333,-14.633 -11.201,-20.638l-9.881 53.526zm115.562 -74.456l0 0c-4.757,9.673 -20.54,22.51 -28.316,29.091 -9.432,7.98 -20.635,15.302 -32.29,21.104l-10.411 16.394c11.517,4.442 20.535,14.88 37.257,18.646 -4.337,-12.44 -4.808,-10.892 2.925,-22.171 8.588,-12.526 36.805,-53.379 40.804,-62.109l-9.969 -0.955z"/>
    <path class="fil14" d="M226.219 107.303l-9.64 60.395c11.674,2.072 25.578,3.93 34.561,-0.942l9.349 -69.466c-9.969,4.116 -21.543,7.523 -34.27,10.013zm-60.122 4.435l0 0 4.686 26.602c7.418,1.483 24.246,3.48 28.948,-3.359 3.184,-4.629 10.499,-18.43 13.88,-25.571 -9.999,1.404 -20.552,2.257 -31.478,2.475 -5.431,0.108 -10.786,0.055 -16.036,-0.147zm-41.954 -5.207l0 0 -1.021 4.528 -7.141 33.339 30.828 5.196 8.228 -37.596 0.188 -0.9c-11.012,-0.881 -21.452,-2.438 -31.082,-4.567z"/>
    <g>
     <path class="fil12" d="M122.43 0.151c4.941,0.903 8.211,5.644 7.305,10.585 -0.905,4.94 -5.641,8.21 -10.582,7.305 -4.941,-0.905 -8.215,-5.642 -7.31,-10.582 0.905,-4.941 5.647,-8.214 10.587,-7.308z"/>
     <path class="fil15" d="M16.406 93.605c2.969,0.54 4.931,3.388 4.389,6.354 -0.545,2.963 -3.39,4.928 -6.356,4.383 -2.961,-0.542 -4.928,-3.387 -4.381,-6.353 0.539,-2.963 3.385,-4.928 6.348,-4.384z"/>
     <path class="fil16" d="M9.989 177.296c3.81,0.697 6.334,4.355 5.637,8.167 -0.699,3.807 -4.352,6.334 -8.166,5.632 -3.81,-0.694 -6.334,-4.352 -5.635,-8.161 0.697,-3.813 4.354,-6.334 8.164,-5.638z"/>
     <path class="fil17" d="M205.42 140.682c2.738,0.5 4.553,3.128 4.05,5.868 -0.503,2.738 -3.128,4.553 -5.87,4.05 -2.735,-0.501 -4.553,-3.128 -4.05,-5.868 0.503,-2.737 3.127,-4.553 5.87,-4.05z"/>
     <path class="fil18" d="M355.236 10.042c4.109,0.753 6.83,4.69 6.074,8.801 -0.753,4.109 -4.69,6.83 -8.799,6.076 -4.109,-0.753 -6.83,-4.692 -6.079,-8.801 0.753,-4.109 4.695,-6.829 8.804,-6.076z"/>
     <path class="fil19" d="M317.687 137.181c3.331,0.611 5.539,3.813 4.931,7.146 -0.611,3.334 -3.812,5.539 -7.146,4.931 -3.331,-0.611 -5.539,-3.812 -4.931,-7.143 0.611,-3.334 3.812,-5.542 7.146,-4.934z"/>
    </g>
   </g>
   <path class="fil2" d="M325.166 192.152l-0.159 5.534c3.348,-0.26 7.683,-2.151 9.658,1.087 -1.33,0.761 -15.98,-0.074 -13.784,10.74 1.366,6.721 13.811,4.827 18.471,3.296 4.953,-17.581 4.629,-24.275 -14.186,-20.657zm9.776 11.164l0 0 -0.954 5.353c-0.675,1.359 -7.45,1.069 -7.534,-1.494 1.001,-4.428 8.488,-3.859 8.488,-3.859z"/>
   <path class="fil2" d="M391.983 193.197l-0.16 5.534c3.349,-0.259 7.684,-2.149 9.658,1.087 -1.329,0.761 -15.976,-0.076 -13.781,10.74 1.364,6.721 13.808,4.832 18.469,3.299 4.955,-17.581 4.629,-24.278 -14.186,-20.66zm9.776 11.164l0 0 -0.955 5.355c-0.672,1.357 -7.447,1.065 -7.535,-1.494 1.003,-4.43 8.49,-3.861 8.49,-3.861z"/>
   <path class="fil2" d="M568.258 193.72l-0.157 5.534c3.346,-0.258 7.68,-2.146 9.655,1.092 -1.327,0.758 -15.979,-0.077 -13.784,10.739 1.365,6.721 13.811,4.828 18.472,3.297 4.953,-17.581 4.627,-24.278 -14.186,-20.662zm9.778 11.166l0 0 -0.954 5.355c-0.677,1.354 -7.448,1.067 -7.534,-1.494 0.996,-4.43 8.488,-3.861 8.488,-3.861z"/>
   <path class="fil2" d="M777.343 195.39l-0.16 5.532c3.344,-0.26 7.683,-2.149 9.658,1.089 -1.329,0.758 -15.979,-0.076 -13.784,10.74 1.364,6.721 13.808,4.83 18.472,3.297 4.953,-17.582 4.626,-24.278 -14.186,-20.658zm9.775 11.162l0 0 -0.954 5.355c-0.675,1.357 -7.45,1.067 -7.536,-1.497 1.003,-4.427 8.49,-3.858 8.49,-3.858z"/>
   <path class="fil1" d="M768.777 216.327c0.645,-2.705 0.264,-3.302 -0.047,-5.595 -3.94,0.132 -9.513,2.904 -10.347,-1.835 0.287,-0.091 0.581,-0.209 0.89,-0.223 4.17,-0.165 7.654,0.103 12.155,-0.454 5.385,-16.404 -12.24,-16.867 -18.324,-7.963 -3.012,4.411 -3.91,11.942 -0.275,15.209 3.746,3.368 11.763,2.816 15.948,0.861zm-10.414 -11.941l0 0c0,0 0.496,-3.937 5.311,-4.644 4.161,-0.599 3.255,4.516 3.255,4.516l-8.566 0.128z"/>
  </g>
 </g>
</svg>
