<?xml version="1.0" encoding="UTF-8"?>
<!DOCTYPE svg PUBLIC "-//W3C//DTD SVG 1.1//EN" "http://www.w3.org/Graphics/SVG/1.1/DTD/svg11.dtd">
<!-- Creator: CorelDRAW -->
<svg xmlns="http://www.w3.org/2000/svg" xml:space="preserve" width="1013px" height="441px" version="1.1" style="shape-rendering:geometricPrecision; text-rendering:geometricPrecision; image-rendering:optimizeQuality; fill-rule:evenodd; clip-rule:evenodd"
viewBox="0 0 1013 441.23"
 xmlns:xlink="http://www.w3.org/1999/xlink"
 xmlns:xodm="http://www.corel.com/coreldraw/odm/2003">
 <defs>
  <style type="text/css">
   <![CDATA[
    .fil8 {fill:#241F20}
    .fil6 {fill:#25AAE1}
    .fil0 {fill:#343795}
    .fil7 {fill:#8CC63E}
    .fil5 {fill:#92278F}
    .fil3 {fill:#E7E8E8}
    .fil2 {fill:#EC2028}
    .fil4 {fill:#F7941D}
    .fil1 {fill:#FFD11C}
   ]]>
  </style>
 </defs>
 <g id="Layer_x0020_1">
  <metadata id="CorelCorpID_0Corel-Layer"/>
  <g id="_1456324439392">
   <path class="fil0" d="M495.573 175.392c-9.825,0 -8.837,-9.662 -8.837,-14.272 0,-18.292 3.21,-34.652 5.91,-51.879 1.94,-12.367 14.52,-14.066 25.36,-14.066 12.191,0 8.632,12.255 8.163,23.116 -0.142,3.346 -0.413,7.751 -0.86,11.374l-5.292 32.094c-0.831,4.206 -1.655,6.06 -4.696,8.227 -4.149,2.955 -12.594,5.406 -19.748,5.406zm-42.146 -13.597c0,12.325 -0.789,23.385 7.97,32.145 15.862,15.862 59.33,4.276 72.486,-1.99 23.642,-11.266 21.987,-40.669 25.304,-63.074 0.512,-3.438 1.79,-35.902 0.803,-41.017 -1.996,-10.371 -14.506,-19.194 -25.666,-19.194 -27.513,0 -68.381,4.397 -74.498,37.671 -1.143,6.251 -1.832,11.828 -2.798,17.596 -0.938,5.64 -2.096,12.225 -2.238,18.15 -0.171,6.748 -1.363,12.183 -1.363,19.713z"/>
   <path class="fil1" d="M294.92 60.502c-1.265,5.676 -6.941,13.412 -9.057,19.72 10.264,0 17.61,-5.179 21.566,-0.17 1.436,1.818 2.537,4.625 1.287,6.997 -1.166,2.216 -3.425,2.315 -6.224,2.671 -2.727,0.334 -5.434,0.81 -7.65,1.186l-15.955 2.231 -9.05 19.713c3.31,-0.071 8.482,-1.058 11.99,-1.649 4.433,-0.752 7.943,-1.235 12.411,-1.861 7.04,-0.987 18.534,-3.288 25.268,-3.288l2.692 5.398c1.585,6.955 -11.515,4.547 -18.086,7.076 -10.009,3.857 -8.354,19.4 6.28,17.17 13.973,-2.124 20.565,-5.335 23.663,0.674 4.787,9.292 -2.124,8.496 -17.653,10.763 -4.227,0.618 -7.282,1.342 -11.167,1.747l-34.297 5.143c-7.481,1.201 -15.963,2.06 -22.768,3.694 2.515,1.606 39.568,9.59 46.182,11.38 5.114,-1.47 12.964,-2.301 17.872,-3.026l27.208 -4.099c4.12,-0.739 5.157,-1.222 7.417,1.705 1.392,1.798 2.891,4.952 1.008,7.395 -1.499,1.939 -5.441,1.784 -8.368,2.551 -2.6,0.681 -4.866,2.074 -5.96,4.241 -1.293,2.557 -1.606,6.144 -0.135,8.787 5.2,9.313 17.873,1.485 24.003,3.161 2.21,0.604 4.27,3.303 4.689,6.223 1.001,7.075 -8.041,6.066 -13.412,7.168l-26.554 4.041c-14.328,2.423 -30.006,1.151 -26.859,14.812 0.71,3.09 2.749,4.71 5.257,5.654 3.879,1.471 52.17,-6.876 63.458,-8.531 2.948,-0.434 6.997,-0.582 9.234,-1.3 -0.398,-0.738 -0.198,0.178 -0.582,-1.741 -0.291,-1.427 -0.042,0.15 -0.178,-1.285 -0.049,-0.568 0,-2.089 0.007,-2.742 0.164,-15.955 -0.547,-87.313 0.753,-90.374l-6.82 -15.664c-0.688,-1.584 -1.604,-4.064 -2.45,-5.456 -0.817,1.783 0.852,0.341 -0.973,1.108l-65.895 -44.484 0 2.586c-0.951,0.533 -0.774,0.37 -2.152,0.675z"/>
   <path class="fil0" d="M815.761 71.378c4.489,-1.194 2.777,-5.441 12.922,-12.233 0,12.958 1.101,17.142 5.434,25.837 5.59,11.21 9.554,12.232 25.154,12.232 7.189,0 19.486,-2.628 21.475,-2.251 5.001,0.944 10.982,14.292 -11.565,18.285l-41.961 6.294c-3.695,0.753 -2.416,0.596 -2.714,4.766 -0.242,3.467 -0.789,9.064 -1.165,12.432 -0.576,5.136 0.327,8.752 -0.782,13.497 5.171,0 10.72,-1.485 16.211,-2.146 10.549,-1.278 39.547,-6.286 46.686,-8.374 9.789,-2.864 15.941,-8.241 20.615,-16.098 6.336,-10.663 16.552,-49.79 -7.253,-57.114 -17.461,-5.364 -41.586,10.208 -41.586,-6.678 0,-11.6 14.244,-12.253 24.863,-13.887l34.283 -5.151c0.867,-3.736 2.039,-27.804 2.039,-31.27l-17.774 2.621c-15.223,2.564 -40.185,4.681 -53.327,9.896 -19.266,7.629 -27.137,27.221 -32.216,46.046 -0.611,2.288 -0.547,1.492 0.661,3.296z"/>
   <path class="fil0" d="M743.025 112.168l15.366 -45.955 0.845 3.908c0.923,8.105 5.541,35.021 5.541,39.333 -7.14,0 -14.612,2.714 -21.752,2.714zm-51.665 57.789c4.404,0 8.233,-1.094 12.524,-1.754l18.399 -2.679c4.169,-0.561 3.573,0.533 4.645,-2.827l6.883 -21.673c1.776,-5.783 2.423,-4.256 9.094,-5.18l25.275 -3.956c0,7.551 3.395,19.748 3.395,25.829 4.092,0 11.714,-1.186 15.138,-1.861l15.458 -2.216 -4.376 -30.98c-1.776,-10.506 -2.941,-20.267 -4.667,-30.681l-4.553 -30.795c-0.561,-5.321 -1.471,-9.689 -2.238,-15.444 -0.611,-4.645 -2.11,-10.826 -2.522,-15.826l-24.586 3.971c-8.865,1.065 -14.427,1.903 -19.904,9.32 -2.203,2.983 -4.163,5.235 -5.833,8.446 -3.893,7.494 -9.22,23.869 -12.126,32.059l-30.006 86.247z"/>
   <path class="fil0" d="M619.299 96.532c1.357,-5.831 2.692,-24.6 3.673,-31.675 0.611,-4.348 1.086,-6.28 1.086,-11.153l-32.627 5.441c0,5.833 -0.817,10.556 -1.57,16.105l-11.537 103.36c-0.241,1.932 -0.994,6.172 -1.171,8.339l31.114 -4.234c1.975,-0.781 1.541,-1.051 1.953,-4.169l4.262 -37.885c0.427,-3.637 1.144,-7.515 1.422,-10.819 4.83,6.955 20.764,39.007 26.511,47.588l31.27 -4.759c-0.646,-2.409 -3.083,-5.499 -4.475,-7.764 -9.668,-15.714 -23.997,-40.443 -33.593,-54.778 1.761,-2.628 3.765,-5.065 5.711,-7.885l30.028 -40.669c1.868,-2.501 11.358,-14.882 11.849,-16.708 -3.695,0.085 -8.767,1.499 -12.361,1.925 -4.795,0.568 -7.814,1.236 -12.396,1.875 -7.615,1.059 -5.2,-0.632 -12.233,9.52 -1.179,1.704 -1.868,2.841 -2.976,4.496 -1.094,1.634 -1.854,2.522 -2.863,3.943l-17.816 25.687c-1.094,1.655 -1.783,3.14 -3.261,4.219z"/>
   <path class="fil2" d="M657.311 309.993l-0.319 10.62 -4.007 -6.542c-0.121,-2.635 0.511,-0.035 -1.108,-2.642 -0.526,-0.846 -1.3,-2.032 -1.896,-2.884l-17.114 -27.073c-2.145,-3.744 -5.043,-7.31 -7.452,-10.905 -7.352,0 -15.749,2.601 -21.07,2.721l-1.335 45.571c-0.114,3.793 -0.725,6.137 -0.71,10.847 0.021,4.085 0.184,8.063 -0.391,11.849 -0.945,6.273 -0.285,16.694 -0.285,23.5l26.121 -4.071 1.151 -34.148c2.06,1.798 4.724,6.245 6.003,8.994l4.76 7.516c0.738,1.158 0.887,1.633 1.79,2.962 2.272,3.339 5.214,8.773 7.082,9.775 5.733,-1.676 11.515,-3.204 17.369,-4.944 5.512,-1.649 11.21,-3.886 16.352,-5.406l2.686 -79.925 0.355 -4.759 -26.561 4.077c0,4.745 -0.661,6.819 -0.71,10.854 -0.05,3.844 0.056,7.751 0.049,11.608 -0.007,4.369 -0.739,6.081 -0.71,10.84 0.021,3.851 0.071,7.723 -0.05,11.565z"/>
   <path class="fil2" d="M522.091 362.441c-8.447,-8.056 -6.649,-28.934 -1.662,-39.149 2.714,-5.549 6.351,-9.583 12.012,-11.792 7.211,-2.806 13.178,-1.378 17.014,3.935 0.582,1.158 1.236,1.932 2.017,3.239 4.994,8.355 4.255,26.604 -0.135,35.526 -4.134,8.39 -12.403,15.891 -22.177,13.306 -3.595,-0.952 -4.448,-3.552 -7.069,-5.065zm-28.585 6.016c2.415,-1.343 61.398,2.785 77.984,-0.682 5.122,-5.668 9.761,-21.368 10.408,-30.581 1.037,-14.612 -1.954,-22.768 -6.77,-33.999 -0.81,-3.324 -3.104,-5.519 -5.079,-7.85 -0.093,-0.106 -0.221,-0.262 -0.313,-0.369l-2.259 -2.5c-15.962,-16.382 -41.685,-10.478 -56.446,3.737 -17.163,16.53 -24.828,38.771 -20.402,62.917 0.482,2.664 0.334,2.636 1.093,5.023l1.784 4.304z"/>
   <path class="fil3" d="M340.675 361.567l-0.085 7.076c-1.435,-1.202 -1.243,-1.18 -2.5,-3.133 -0.831,-1.287 -1.066,-1.641 -1.784,-2.955 -1.591,-2.004 -2.067,-1.556 -5.292,-1.279 -16.139,1.378 -28.67,2.727 -44.817,6.279l-1.378 32.159c0.021,5.669 0,11.345 0.021,17.013 0.021,6.195 -0.682,9.882 -0.682,16.318 1.655,-0.142 1.761,-0.206 2.912,-0.682l22.931 -3.787c2.281,-5.107 1.385,-43.836 2.458,-53.59 0.618,1.534 4.49,6.379 5.804,9.107l25.034 38.41c1.84,1.158 0.276,0.575 2.699,0.561 0.554,-0.007 2.55,-0.341 3.218,-0.447l15.621 -2.643 1.677 -59.593c-5.264,0.17 -22.619,-1.471 -25.837,1.186z"/>
   <path class="fil0" d="M937.448 133.245l19.422 -3.012c13.902,-2.351 14.214,0.057 14.584,-7.857 0.369,-8.141 2.365,-21.539 3.389,-30.603 0.355,-3.204 0.553,-6.997 1.051,-10.499 2.799,-19.55 4.049,-40.684 6.805,-60.496 0.93,-6.713 1.805,-14.364 2.337,-20.778l-28.983 4.333c-5.612,0.767 -4.177,1.15 -4.816,6.734 -1.62,14.123 -2.742,26.945 -4.66,40.889l-6.784 60.517c-0.896,6.238 -2.345,14.62 -2.345,20.772z"/>
   <path class="fil0" d="M396.326 54.677l-8.787 70.462c-0.867,7.715 -2.089,16.24 -2.089,24.423l-2.045 -4.283c-0.995,2.393 3.232,25.544 3.601,27.981l36.513 -5.207c0.959,-2.245 1.57,-10.308 2.132,-13.639 1.584,-9.278 4.439,-35.426 6.024,-42.246 -4.569,-2.643 -11.558,-18.228 -13.526,-25.886 -3.041,-11.871 -2.813,-23.357 -0.149,-35.277 -4.44,0.71 -18.605,2.265 -21.674,3.672z"/>
   <path class="fil2" d="M707.677 343.822c0.945,-1.798 0.575,-5.058 0.611,-7.452l26.255 -7.338 0.725 -9.079 30.979 -5.065c1.393,-3.587 1.016,-15.01 1.115,-19.848l0.157 -4.76 -27.534 4.078c-0.646,0.256 -0.512,0.369 -1.79,0.391 -1.62,0.028 0.625,0.831 -2.266,-0.391 0.006,-2.479 0.064,-4.994 0.106,-7.48 0.121,-6.976 0.618,-4.752 0.994,-7.033l36.251 -5.548 0.846 -21.404 0.199 -5.441c-3.098,0 -5.371,0.874 -7.687,1.179l-24.288 3.58c-6.834,1.151 -28.855,3.95 -31.959,5.442 0,6.962 0.305,15.443 -0.491,21.255l-0.845 32.471c0,4.376 -0.739,6.08 -0.71,10.847 0.05,8.134 -0.668,14.059 -0.668,21.596z"/>
   <path class="fil2" d="M392.241 361.801c3.85,-0.717 22.32,0.42 26.313,1.364l1.229 -34.503c6.933,-2.245 16.836,-3.034 20.181,2.408 3.233,5.96 4.696,5.037 6.202,15.416 1.833,12.588 -1.073,14.285 -1.577,19.784 0.562,-0.91 1.222,-1.251 1.357,-1.407l19.365 1.3c6.905,0.362 5.314,-0.078 6.031,1.577 4.937,-15.443 1.734,-32.89 -3.133,-46.87 0.128,-5.563 -14.208,-20.801 -27.669,-21.106 -9.775,-0.221 -17.973,1.18 -27.804,2.849 -1.975,0.334 -16.218,2.294 -17.007,2.706 -1.74,0.917 -1.52,-0.142 -2.088,7.431l-0.718 29.196c0,7.58 -0.682,12.666 -0.682,19.855z"/>
   <path class="fil4" d="M297.072 57.241l65.895 44.484c1.825,-0.767 0.156,0.675 0.973,-1.108l-22.682 -49.698c-8.504,-2.813 -17.305,-6.94 -25.758,-10.215l-18.946 -7.58c-5.775,-2.302 -4.461,-0.838 -5.925,-3.21l-76.785 11.948c-5.022,0.838 -8.439,0.724 -11.337,3.615 -4.518,4.519 -4.354,16.169 9.555,15.011 2.116,-0.177 4.617,-0.916 6.336,-1.158 9.071,-1.271 69.02,-10.791 71.577,-10.13 4.945,1.265 4.526,4.66 7.097,8.041z"/>
   <path class="fil2" d="M808.962 306.392l14.791 4.127c0.646,-1.051 0.894,-1.136 3.693,-1.626l34.731 -5.562 -1.727 -7.609c-0.312,-2.934 -3.026,-5.832 -5.086,-7.658 -2.117,-1.875 -5.271,-3.587 -8.119,-4.788 -5.84,-2.45 -14.009,-4.617 -20.601,-5.846 -8.361,-2.337 -7.225,-11.565 2.834,-12.155 4.802,-0.276 15.259,2.302 19.145,5.974 0.589,0.519 -0.312,0.271 1.087,0.711 1.583,0.49 0.398,0.476 1.235,-0.036 1.471,-4.269 9.683,-23.059 11.722,-25.708 -0.689,-2.82 -1.364,-2.344 -6.102,-4.212 -54.884,-21.624 -77.872,41.805 -54.209,61.006 1.527,1.243 4.695,3.212 6.606,3.382z"/>
   <path class="fil2" d="M968.037 285.962l-3.999 0.504 8.084 -33.04c1.768,2.877 2.251,8.624 2.65,12.382 0.156,4.007 1.527,9.505 2.421,13.327 0.74,3.147 1.237,5.115 -1.683,5.697 -3.694,0.738 -3.069,-0.433 -7.473,1.13zm-28.55 6.571l64.012 -7.026 -16.509 -65.249c-0.277,-1.598 -0.604,-4.041 -1.272,-5.434l-24.472 4.078 -16.403 54.976c-0.852,2.763 -1.91,6.081 -2.635,8.922 -0.924,3.58 -1.982,6.096 -2.721,9.733z"/>
   <path class="fil3" d="M393.79 416.045c2.763,-1.292 21.972,-3.665 26.71,-4.368 9.796,-1.449 16.346,-2.92 24.025,-7.253 11.814,-6.67 22.867,-19.969 26.817,-36.684 -0.717,-1.655 0.874,-1.215 -6.031,-1.577l-19.365 -1.3c-0.135,0.156 -0.795,0.497 -1.357,1.407 -1.186,2.792 -1.591,4.468 -3.247,7.104 -5.526,8.794 -11.245,9.568 -20.544,11.77l-2.962 0.327 0.718 -22.306c-3.993,-0.944 -22.463,-2.081 -26.313,-1.364 0,5.712 -0.71,8.546 -0.682,14.13l-0.674 14.96c-0.256,4.682 0,10.187 0,14.961 0.007,9.078 -1.719,12.694 2.905,10.193z"/>
   <path class="fil5" d="M373.21 217.879c7.403,-1.42 14.847,-1.854 21.234,-3.58 12.097,-3.268 21.524,-13.114 25.594,-24.714 1.23,-3.509 3.481,-17.049 3.481,-21.532l-36.513 5.207c-0.369,-2.437 -4.596,-25.588 -3.601,-27.981 -0.448,-1.662 -1.478,-3.921 -2.267,-5.683l-5.114 -11.885c-0.945,-2.33 -1.706,-3.971 -2.814,-5.974 -1.3,3.061 -0.589,74.419 -0.753,90.374 -0.007,0.653 -0.056,2.174 -0.007,2.742 0.136,1.435 -0.113,-0.142 0.178,1.285 0.384,1.919 0.184,1.003 0.582,1.741z"/>
   <path class="fil0" d="M494.898 242.692l-8.837 -24.472c-4.589,0.384 -10.208,2.038 -14.961,2.038 -0.063,2.935 -0.66,3.24 -0.703,6.77 -0.029,2.48 0.021,5.023 0.029,7.509 0.006,5.755 -0.718,9.178 -0.697,14.257 0.043,10.848 -0.667,19.664 -0.667,29.929 4.553,-0.099 10.044,-1.684 14.278,-2.039 0,-9.42 0.682,-17.781 0.682,-27.869l6.117 17.676c10.186,-0.228 7.551,-1.223 13.319,-17.278 0.746,-2.081 0.398,-1.697 1.634,-3.117 -0.178,2.123 -0.682,2.414 -0.682,4.758l0 22.434 13.596 -2.039c0.072,-2.933 0.668,-3.239 0.711,-6.776l0.618 -21.816c0.397,-4.788 -0.391,-9.924 0.32,-14.634 0.71,-4.681 0.39,-10.222 0.39,-15.237 -3.58,0.291 -8.141,1.442 -11.714,1.875 -3.133,0.384 -3.282,-0.142 -4.39,2.408l-9.043 25.623z"/>
   <path class="fil3" d="M939.487 292.533c-1.797,3.068 -12.211,40.797 -12.233,41.933 1.62,-0.377 2.089,-0.632 4.205,-0.675 4.718,-2.493 17.945,-1.584 22.129,-4.17 3.744,-4.987 2.856,-16.182 6.294,-21.88 2.969,-0.951 19.301,-3.516 22.107,-2.997l0.504 3.211c-0.277,3.445 1.194,6.408 1.677,9.028 0.795,4.348 0.141,5.541 2.223,8.645 0.384,0 1.115,0.015 1.314,-0.042 1.229,-0.355 0.74,-0.213 1.378,-0.632l22.896 -3.779c0.554,-3.112 -7.054,-30.781 -8.482,-35.668l-64.012 7.026z"/>
   <path class="fil3" d="M823.753 310.519c2.081,0.412 3.829,0.881 5.569,1.542 0.596,0.227 1.755,0.667 2.33,1.08 1.505,1.086 0.639,0.412 1.399,1.612 0.27,1.165 0.391,3.9 0.391,6.117 -5.939,3.146 -12.162,2.592 -18.506,0.83 -10.016,-2.792 -11.699,-5.384 -15.486,-6.265 -0.34,4.07 -10.193,22.689 -11.557,28.55 1.776,1.194 2.87,2.522 5.434,2.692 17.475,5.47 35.008,7.843 51.14,-1.846 6.365,-3.823 11.622,-8.838 15.06,-16.261 2.693,-5.818 5.221,-17.987 2.65,-25.239l-34.731 5.562c-2.799,0.49 -3.047,0.575 -3.693,1.626z"/>
   <path class="fil0" d="M962.602 171.996l-16.317 -25.155c-3.452,0.803 -7.437,1.236 -10.876,2.039 -1.555,18.698 -2.038,38.624 -2.038,58.464 8.482,-4.07 14.491,2.657 14.314,-7.437 -0.164,-9.462 0.639,-15.884 0.639,-21.795 1.826,1.336 15.153,21.965 15.636,23.79 5.271,0 7.366,-1.008 11.558,-1.356l0.681 -14.279c-0.007,-5.669 0.696,-9.462 0.704,-14.25 0.014,-10.833 0.653,-19.208 0.653,-29.935 -2.92,0.682 -6.031,1.03 -9.348,1.527 -5.35,0.803 -5.058,0.128 -4.952,6.606 0.135,8 -0.654,13.881 -0.654,21.781z"/>
   <path class="fil0" d="M605.702 227.057c-1.556,-1.144 -6.378,-9.547 -7.877,-11.835l-7.758 -12.637c-5.768,0 -7.238,1.002 -11.558,1.356 0,12.454 -2.472,46.587 -2.102,55.175 0.263,6.01 2.976,1.251 14.342,1.251 0,-9.917 0.682,-17.682 0.682,-27.869 0.611,0.704 -0.085,-0.205 0.924,1.116l5.157 7.757c13.404,20.914 7.672,15.416 21.787,14.236 0,-19.72 1.364,-38.375 1.364,-58.457 -1.747,0.831 -6.642,1.18 -9.349,1.528 -6.422,0.831 -4.994,-0.299 -4.93,17.503 0.022,4.568 -0.682,7.353 -0.682,10.876z"/>
   <path class="fil3" d="M707.677 343.822c0,8.865 -0.682,15.685 -0.682,23.961l2.799 0c3.168,-1.656 53.384,-8.518 61.781,-9.81l0.32 -0.391 0.718 -26.355 -2.395 0.113 -30.418 4.49 -5.328 1.016 0.071 -7.814 -26.255 7.338c-0.036,2.394 0.334,5.654 -0.611,7.452z"/>
   <path class="fil2" d="M884.426 299.771l25.914 -3.537 -0.057 4.546 2.309 -74.398c-2.841,0 -3.765,0.334 -6.322,0.774 -1.996,0.356 -4.064,0.491 -6.614,0.86 -5.136,0.753 -7.473,1.762 -13.191,1.762 0,14.577 -2.075,37.096 -2.039,51.666 0.014,6.109 0,12.218 0,18.327z"/>
   <path class="fil0" d="M630.175 225.018c0,5.555 2.55,13.583 4.738,17.013 5.648,8.859 15.366,11.175 23.847,6.813 2.984,-1.534 3.027,-2.515 5.406,-4.113l0 4.084c3.638,-0.852 7.914,-1.192 11.558,-2.045 0,-33.7 4.951,-31.882 -5.029,-30.191l-10.784 1.47c-1.541,0.249 -3.9,-1.328 -3.9,8.333l0 4.078c3.772,0 4.028,-0.682 7.473,-0.682 -4.539,6.777 -18.349,12.403 -18.349,-8.155 0,-16.9 16.652,-19.727 19.031,-9.519 3.083,-0.825 8.859,-7.864 10.876,-10.876 -1.136,-4.902 -6.663,-8.688 -12.112,-9.662 -11.749,-2.088 -23.065,6.316 -28.017,15.757 -2.479,4.738 -4.738,12.183 -4.738,17.695z"/>
   <path class="fil0" d="M861.31 159.756l-13.596 23.116c0,-3.41 -0.029,-6.82 -0.022,-10.223 0.008,-4.276 0.704,-5.647 0.704,-10.172 -4.341,0 -4.781,0.546 -8.44,1.072 -5.896,0.853 -6.521,-4.638 -6.514,22.043 0,7.083 -0.71,11.743 -0.682,18.349 0.021,6.998 -0.682,12.148 -0.682,18.356 4.454,0 4.795,-0.334 8.553,-0.966 5.058,-0.838 5.726,1.051 5.782,-4.418 0.036,-4.142 0.597,-5.058 0.618,-8.887 0.043,-6.841 0.967,-4.134 2.047,-8.163l1.357 0c0.468,1.748 3.736,7.68 4.787,9.491 0.689,1.187 4.547,8.866 5.406,8.866 5.165,0 9.775,-2.039 15.635,-2.039 -0.888,-3.836 -16.416,-27.435 -16.565,-29.359 -0.135,-1.776 2.663,-5.137 3.935,-7.069l13.312 -22.036c-5.257,0.121 -9.497,2.039 -15.635,2.039z"/>
   <path class="fil0" d="M247.445 275.327c0,-2.685 -0.191,-6.159 0.1,-8.737 0.248,-2.238 0.98,-5.797 0.632,-9.029 -0.262,-2.387 0.476,-2.224 -1.812,-2.366l-12.516 1.776 -2.039 58.464c4.063,-0.092 9.938,-1.677 14.279,-2.039 0,-3.751 -0.008,-13.234 0.887,-16.786 0.462,-1.861 1.194,-1.548 1.833,-4.291l1.357 0c0.803,3.453 3.133,6.813 4.724,9.548 1.747,2.998 3.161,6.408 4.795,9.49 5.129,-1.2 11.182,-1.527 16.311,-2.72l-16.993 -29.232c3.467,-6.55 14.357,-22.285 17.674,-28.551 -4.581,0 -7.359,0.81 -11.479,1.436 -0.483,0.071 -2.65,0.404 -2.912,0.483 -3.027,0.866 -6.472,8.773 -9.697,14.101l-5.144 8.453z"/>
   <path class="fil0" d="M313.39 244.731l-1.272 34.766c-2.969,14.279 -14.271,14.563 -14.392,-0.746 -0.078,-8.744 0.618,-15.088 0.682,-23.847 0.071,-8.937 3.374,-7.971 -8.439,-6.394 -2.579,0.341 -3.567,-0.22 -4.845,1.272 -1.137,1.321 -1.243,18.441 -1.613,22.86 -3.843,46.423 34.851,36.577 41.308,12.752 2.431,-8.966 2.842,-32.039 2.842,-42.702 -4.695,0.107 -9.355,2.039 -14.271,2.039z"/>
   <path class="fil0" d="M717.189 182.19c0,2.792 -0.54,3.502 -0.682,6.116 -0.441,8.191 2.508,39.433 -8.83,39.433 -2.486,0 -3.296,-0.703 -4.355,-2.444 -3.907,-6.386 -1.086,-31.569 -1.086,-40.385 -5.044,0 -9.825,1.94 -14.272,2.039 0,17.732 -6.983,55.743 15.636,55.743 31.448,0 27.185,-40.903 27.185,-62.541 -0.987,0.476 -11.742,2.039 -13.596,2.039z"/>
   <path class="fil6" d="M121.68 124.408c0,12.275 12.191,9.533 19.82,8.254l69.361 -10.847c9.633,-2.955 6.77,-17.802 -1.485,-17.802 -4.234,0 -7.87,0.738 -11.557,1.357l-70.47 11.11c-2.664,1.137 -5.669,4.49 -5.669,7.928z"/>
   <path class="fil0" d="M532.967 210.74c0,20.011 -1.364,38.111 -1.364,58.464l33.991 -5.435 0 -14.278c-6.094,0.511 -13.084,2.72 -19.712,2.72l0 -8.154 13.71 -1.933c4.27,-0.597 3.282,0.916 3.282,-13.703 -5.548,0 -10.912,1.918 -16.311,2.039 0,-8.93 -1.442,-6.891 9.029,-8.646 3.218,-0.539 7.68,-1.484 10.684,-1.556 0,-5.413 0.676,-8.474 0.676,-14.271 -5.378,0 -11.41,1.506 -16.687,2.345l-17.298 2.408z"/>
   <path class="fil6" d="M418 51.005c-2.664,11.92 -2.892,23.406 0.149,35.277 1.968,7.658 8.957,23.243 13.526,25.886l14.271 -100.675c-3.651,0.753 -7.36,5.208 -9.597,7.459 -3.084,3.105 -5.079,5.42 -7.815,9.186 -4.667,6.428 -8.02,14.029 -10.534,22.867z"/>
   <path class="fil2" d="M286.197 367.555c16.147,-3.552 28.678,-4.901 44.817,-6.279 3.225,-0.277 3.701,-0.725 5.292,1.279 -0.34,-3.091 -4.723,-8.248 -6.563,-11.125l-20.431 -32.599c-5.967,0 -10.257,1.42 -15.607,2.074 -8.233,1.001 -5.804,0.54 -6.13,11.543l-1.378 35.107z"/>
   <path class="fil3" d="M233.849 385.599c0,18.704 -2.039,36.499 -2.039,54.919l2.252 0 24.38 -3.985 1.975 -61.775c-8.574,1.784 -19.187,7.623 -26.568,10.841z"/>
   <path class="fil0" d="M294.352 169.097c-6.614,-1.79 -43.667,-9.774 -46.182,-11.38l-46.558 7.19c-8.105,1.555 -16.708,1.072 -17.426,9.838 -0.881,10.72 9.321,10.016 16.943,8.709l69.809 -11.082c4.255,-0.682 7.899,-1.001 11.792,-1.804 3.637,-0.739 7.743,-0.831 11.622,-1.471z"/>
   <path class="fil0" d="M899.379 189.67c0.874,-1.826 3.403,-12.261 3.403,-14.953 2.302,1.683 0.426,-1.115 2.173,6.656 0.384,1.705 1.173,5.435 1.223,7.615 -2.998,0.071 -3.176,0.682 -6.799,0.682zm8.837 10.193l1.84 8.419c0.654,2.493 -0.561,1.591 1.428,2.053 1.144,0.262 10.095,-1.634 13.05,-1.634 0,-3.566 -5.697,-24.039 -6.65,-28.017 -1.37,-5.712 -6.599,-23.556 -6.947,-27.726 -3.637,0 -4.639,0.255 -7.53,0.632 -6.876,0.888 -5.982,0.533 -10.144,15.685 -2.436,8.859 -5.392,18.115 -8.006,26.668 -7.558,24.749 -6.805,19.137 2.571,18.206 5.108,-0.511 5.357,-0.127 6.429,-1.733 0.136,-0.192 1.549,-6.564 1.691,-7.146 1.002,-4.263 0.249,-3.609 4.554,-4.284 2.259,-0.348 4.752,-1.123 7.714,-1.123z"/>
   <path class="fil3" d="M511.89 391.474c13.334,5.882 23.407,5.704 36.393,-0.903 5.91,-3.004 9.071,-5.846 13.248,-9.859 2.75,-2.636 8.667,-8.837 9.959,-12.937 -16.586,3.467 -75.569,-0.661 -77.984,0.682 0.447,4.376 4.709,10.344 7.011,13.413 2.436,3.246 7.679,8.886 11.373,9.604z"/>
   <path class="fil0" d="M756.622 212.104c0,-5.421 2.6,-9.498 2.721,-14.954l1.357 0c0,3.374 0.937,6.876 1.612,10.066 1.165,5.491 -0.582,3.694 -5.69,4.888zm-2.721 -35.348c-0.334,3.985 -2.955,10.776 -4.163,14.868l-13.511 45.634c3.786,0 10.962,-1.272 14.279,-2.039 0.873,-1.832 2.656,-8.922 2.713,-11.557 4.035,-0.341 7.566,-1.365 12.24,-1.365 0,4.554 1.271,6.323 1.357,10.201 3.459,0 5.726,-0.625 9.15,-1.051 7.593,-0.944 5.846,1.172 -0.008,-22.369 -1.527,-6.152 -2.955,-11.551 -4.383,-17.369l-4.759 -16.992c-4.05,0.333 -8.809,1.946 -12.915,2.039z"/>
   <path class="fil0" d="M352.815 274.645l3.268 -14.414c0.995,-2.976 -0.739,1.784 0.369,-0.98l0.441 -0.923c0.093,3.957 1.861,11.281 2.721,14.96 -2.046,0.476 -5.207,0.597 -6.799,1.357zm-1.357 -36.03c-1.484,2.799 -1.775,3.666 -2.585,6.94l-9.057 30.362c-0.789,2.465 -1.343,5.086 -2.273,7.927l-4.441 15.956c4.611,-0.107 9.839,-1.94 14.279,-2.039 0.902,-3.908 1.833,-7.771 2.714,-11.558 3.651,-0.853 7.921,-1.193 11.558,-2.039 0.071,3.012 1.392,8.091 2.039,10.876 4.922,0 9.575,-1.932 14.278,-2.039l-14.278 -55.743c-4.149,0.092 -7.332,1.357 -12.234,1.357z"/>
   <path class="fil2" d="M233.849 385.599c7.381,-3.218 17.994,-9.057 26.568,-10.841l1.697 -47.765c-1.079,-1.094 1.578,-0.952 -1.754,-0.888l-24.472 3.601c0,5.584 -0.718,8.333 -0.69,13.59 0.036,5.484 -0.639,9.093 -0.696,13.583 -0.127,10.371 -0.653,18.469 -0.653,28.72z"/>
   <path class="fil7" d="M182.865 95.857c6.784,0 12.503,-1.363 18.726,-2.343l37.898 -5.613c6.429,-1.044 12.716,-1.647 12.716,-10.399 0,-3.829 -3.481,-7.318 -6.677,-8.326 -2.927,-0.924 -8.497,0.661 -12.645,1.236l-51.787 8.042c-3.239,1.214 -5.917,5.043 -5.548,9.114 0.355,3.871 4.114,8.289 7.317,8.289z"/>
   <path class="fil2" d="M340.675 361.567c3.218,-2.657 20.573,-1.016 25.837,-1.186l2.088 -49.024 -0.177 -2.038 -26.483 4.077c0,12.588 -1.826,38.495 -1.265,48.171z"/>
   <path class="fil0" d="M783.815 171.996c0,5.754 -0.682,8.645 -0.682,14.271 5.598,0 7.999,-1.357 13.597,-1.357 0,4.526 -0.697,5.897 -0.703,10.173 -0.008,3.808 0.156,7.822 0.042,11.6l-0.696 21.738 14.271 -2.721c0,-7.792 0.078,-14.974 0.647,-21.794 0.263,-3.204 0.049,-7.53 0.028,-10.841 -0.021,-4.738 0.689,-6.862 0.689,-10.875 3.396,0 9.882,-1.336 12.915,-2.039 1.151,-17.12 5.335,-15.451 -18.846,-11.367l-21.262 3.212z"/>
   <path class="fil7" d="M288.612 199.189l17.12 -8.34c5.093,-2.323 12.104,-6.258 17.17,-7.7 -0.76,-2.032 -2.92,-4.156 -4.817,-4.98 -3.95,-1.705 -20.785,1.84 -27.094,2.699 -5.938,0.817 -11.7,1.812 -17.752,2.643 -3.736,0.504 -23.656,3.189 -26.482,4.788 -7.268,4.106 -5.179,18.193 5.931,16.878 0.533,-0.063 2.699,-0.618 3.971,-0.852l30.681 -4.617c0.135,-0.036 0.341,-0.114 0.462,-0.15l0.81 -0.369z"/>
   <path class="fil0" d="M380.009 236.576l0 12.239c2.216,-0.049 11.55,-1.384 12.914,-2.045 0,10.854 -0.518,19.422 -0.653,29.942 -0.029,2.437 -2.032,12.638 0.199,13.846 0.611,0.327 10.542,-1.634 13.369,-1.634 0,-14.286 1.364,-28.799 1.364,-44.193 16.872,-1.399 13.596,-1.058 13.596,-16.31l-31.952 4.759c-3.083,0.519 -8.837,0.214 -8.837,3.396z"/>
   <path class="fil7" d="M396.326 54.677c3.069,-1.407 17.234,-2.962 21.674,-3.672 2.514,-8.838 5.867,-16.439 10.534,-22.867 2.736,-3.766 4.731,-6.081 7.815,-9.186 2.237,-2.251 5.946,-6.706 9.597,-7.459 0,-2.578 0.235,-2.77 0.682,-4.695 -4.326,0 -7.182,0.738 -10.869,1.364 -3.524,0.597 -6.962,0.916 -10.691,1.548 -14.399,2.437 -23.535,5.079 -25.993,22.96 -0.49,3.602 -1.065,7.246 -1.371,10.861 -0.32,3.786 -1.378,7.758 -1.378,11.146z"/>
   <path class="fil5" d="M254.613 144.121l9.001 -19.713c-2.792,0.256 -5.549,1.03 -8.688,1.357l-54.898 8.332c-2.437,0.541 -4.809,2.423 -6.003,4.874 -2.92,5.981 1.286,11.778 6.237,12.949 2.011,0.477 32.088,-4.368 36.301,-5.085l18.05 -2.714z"/>
   <path class="fil3" d="M884.426 299.771l-1.364 23.137c0.078,15.799 -4.128,19.805 4.085,17.326l21.545 -3.331c1.698,-6.337 1.165,-27.819 1.591,-36.123l0.057 -4.546 -25.914 3.537z"/>
   <path class="fil4" d="M248.127 225.7c0,12.801 13.199,9.043 17.873,8.354 3.68,-0.54 6.898,-0.923 10.095,-1.456 3.254,-0.54 7.054,-0.725 9.313,-2.245 7.63,-5.122 4.518,-19.016 -8.66,-16.161 -9.014,1.961 -28.621,0.562 -28.621,11.508z"/>
   <path class="fil3" d="M648.531 356.083c0.497,2.337 6.457,11.096 8.461,14.115l3.097 4.397c4.191,0.462 16.139,-2.131 21.276,-2.771l0.887 -26.091c-5.142,1.52 -10.84,3.757 -16.352,5.406 -5.854,1.74 -11.636,3.268 -17.369,4.944z"/>
   <path class="fil5" d="M290.629 29.914c1.464,2.372 0.15,0.908 5.925,3.21l18.946 7.58c8.453,3.275 17.254,7.402 25.758,10.215l-5.697 -13.263c-6.692,-11.223 -16.041,-11.99 -27.315,-10.165l-17.617 2.423z"/>
   <path class="fil3" d="M601.624 365.055c-0.063,3.033 -0.71,4.773 -0.688,8.837 0.021,3.403 0.007,6.798 0.007,10.201 0.867,0.533 -0.775,0.845 1.549,0l24.735 -4.227 0.518 -18.882 -26.121 4.071z"/>
   <path class="fil4" d="M263.614 124.408l-9.001 19.713 17.511 -2.515c6.28,-1.023 11.827,-1.122 14.314,-6.088 2.65,-5.3 -0.213,-11.153 -4.859,-12.623 -4.312,-1.364 -12.858,1.122 -17.965,1.513z"/>
   <path class="fil6" d="M269.837 112.85l9.05 -19.713c-7.388,3.097 -25.383,0.554 -29.786,8.453 -3.076,5.527 0.163,10.749 4.752,12.354 4.198,1.47 11.615,-0.043 15.984,-1.094z"/>
   <path class="fil6" d="M208.019 199.863c0,10.351 4.383,11.331 13.654,10.259 3.154,-0.362 6.585,-0.689 9.014,-1.861 6.117,-2.942 8.624,-18.918 -8.517,-16.687 -6.258,0.817 -14.151,1.606 -14.151,8.289z"/>
   <path class="fil4" d="M159.075 146.841c0,12.489 10.783,11.395 20.153,8.596 8.354,-2.493 8.042,-12.51 2.401,-16.197 -3.9,-2.543 -16.459,0.178 -18.171,1.109 -1.968,1.065 -4.383,3.707 -4.383,6.492z"/>
   <path class="fil0" d="M285.863 80.222c2.116,-6.308 7.792,-14.044 9.057,-19.72 -4.539,1.151 -10.002,1.571 -15.131,2.429 -6.159,1.038 -9.562,0.704 -12.397,5.286 -3.032,4.916 0.172,10.457 3.404,12.446 4.176,2.586 11.031,-0.021 15.067,-0.441z"/>
   <path class="fil8" d="M471.342 367.74c-3.95,16.715 -15.003,30.014 -26.817,36.684 -7.679,4.333 -14.229,5.804 -24.025,7.253 -4.738,0.703 -23.947,3.076 -26.71,4.368 7.388,1.983 14.03,-0.354 20.317,-1.25 7.196,-1.03 13.71,-1.641 19.755,-3.352 8.397,-2.38 17.781,-7.197 23.379,-13.335 0.092,-0.106 0.227,-0.255 0.327,-0.354l4.155 -4.682c3.993,-5.413 5.634,-7.92 8.511,-14.605 6.904,-16.02 7.039,-37.664 0.412,-53.733l-2.437 -3.864c4.867,13.98 8.07,31.427 3.133,46.87z"/>
   <path class="fil8" d="M571.49 367.775c-1.292,4.1 -7.209,10.301 -9.959,12.937 -4.177,4.013 -7.338,6.855 -13.248,9.859 -12.986,6.607 -23.059,6.785 -36.393,0.903 2.245,3.36 11.373,5.583 16.41,6.145 5.598,0.624 14.647,-1.983 18.669,-3.602 20.359,-8.191 34.567,-32.067 36.89,-54.202 1.079,-10.3 -3.126,-32.45 -8.731,-36.62 4.816,11.231 7.807,19.387 6.77,33.999 -0.647,9.213 -5.286,24.913 -10.408,30.581z"/>
   <path class="fil0" d="M424.876 271.924l0 13.597 3.09 -0.071c0.05,0.007 0.213,0.029 0.305,0.071 -3.38,14.542 -4.794,13.625 4.086,11.558 0.333,-4.007 2.002,-6.926 2.884,-10.705 1.271,-5.442 1.193,-11.871 1.193,-17.845 -2.799,0 -3.822,0.412 -6.635,0.845 -2.181,0.334 -4.923,0.014 -4.923,2.55z"/>
   <path class="fil8" d="M910.283 300.78c-0.426,8.304 0.107,29.786 -1.591,36.123l-21.545 3.331c2.905,3.339 8.325,1.279 15.357,0.078 6.167,-1.058 8.838,-2.493 9.136,-9.22 0.54,-12.361 0.199,-23.556 0.668,-36.102l1.342 -33.949c-0.028,-5.256 1.308,-22.39 0.612,-27.107l-1.67 -7.552 -2.309 74.398z"/>
   <path class="fil8" d="M366.512 360.381l-1.677 59.593 -15.621 2.643c-0.668,0.106 -2.664,0.44 -3.218,0.447 -2.423,0.014 -0.859,0.597 -2.699,-0.561 1.015,1.825 -0.682,0.383 2.493,1.243 0.22,0.057 3.204,0.732 3.793,0.781 1.578,0.121 5.875,-0.525 7.523,-0.788 16.339,-2.586 7.8,-12.431 11.246,-43.141 0.589,-5.214 -0.086,-12.148 0.077,-17.596 0.107,-3.481 0.718,-4.184 0.725,-8.112 0.015,-8.873 1.975,-38.432 -0.554,-43.533l-2.088 49.024z"/>
   <path class="fil5" d="M243.368 231.135c0,-13.768 -14.754,-12.084 -17.561,-4.611 -1.406,3.765 -0.191,7.509 2.075,9.903 4.987,5.278 15.486,1.57 15.486,-5.292z"/>
   <path class="fil7" d="M222.973 108.091c0,15.457 17.674,13.191 17.674,1.363 0,-12.339 -17.674,-10.655 -17.674,-1.363z"/>
   <path class="fil8" d="M260.417 374.758l-1.975 61.775 -24.38 3.985c7.459,0 1.492,1.883 16.31,-0.476 11.558,-1.833 10.791,-4.724 10.663,-26.724l0.689 -18.349c0,-15.088 2.095,-36.613 2.039,-51.659 -0.057,-15.706 -1.364,-9.136 -1.364,-17.682l-2.039 0.477c3.332,-0.064 0.675,-0.206 1.754,0.888l-1.697 47.765z"/>
   <path class="fil8" d="M682.252 345.733l-0.887 26.091c-5.137,0.64 -17.085,3.233 -21.276,2.771 3.673,2.266 10.414,1.279 14.782,0.49 6.486,-1.179 7.63,-1.726 8.76,-8.922l0.923 -33.061c-0.078,-13.057 2.131,-37.749 2.053,-50.97 -0.014,-2.948 -0.028,-5.91 0.007,-8.858 0.015,-1.868 0.355,-4.205 -0.327,-5.811 -0.575,-1.37 -0.398,-0.887 -1.349,-1.655l-2.686 79.925z"/>
   <path class="fil8" d="M862.177 303.331c2.571,7.252 0.043,19.421 -2.65,25.239 -3.438,7.423 -8.695,12.438 -15.06,16.261 -16.132,9.689 -33.665,7.316 -51.14,1.846 2.053,2.87 8.247,4.064 12.539,5.165 13.738,3.523 32.478,1.485 43.119,-6.586 4.653,-3.516 5.52,-3.942 8.923,-8.751 3.025,-4.269 3.92,-6.167 5.696,-11.977 2.132,-6.983 1.734,-18.882 -1.179,-25.837l-1.975 -2.969 1.727 7.609z"/>
   <path class="fil1" d="M288.612 199.189c4.468,0 7.395,-0.725 11.174,-1.364 13.661,-2.323 25.673,-0.611 23.116,-14.676 -5.066,1.442 -12.077,5.377 -17.17,7.7l-17.12 8.34z"/>
   <path class="fil1" d="M118.96 151.601c0,8.453 14.96,11.636 14.96,-0.682 0,-9.32 -14.96,-8.461 -14.96,0.682z"/>
   <path class="fil1" d="M152.951 178.794c0,8.652 14.961,11.082 14.961,-0.682 0,-9.725 -14.961,-8.283 -14.961,0.682z"/>
   <path class="fil8" d="M522.091 362.441c-1.627,-7.438 -3.41,-2.728 -3.403,-17.774 0.008,-12.339 2.835,-23.833 13.625,-29.885 6.202,-3.475 11.516,-2.586 17.142,0.653 -3.836,-5.313 -9.803,-6.741 -17.014,-3.935 -5.661,2.209 -9.298,6.243 -12.012,11.792 -4.987,10.215 -6.785,31.093 1.662,39.149z"/>
   <path class="fil8" d="M418.554 363.165l-0.718 22.306 2.962 -0.327c-1.235,-18.214 -0.255,-18.292 -0.028,-36.428 0.043,-3.516 0.462,-14.669 2.749,-16.964 2.444,-2.444 9.192,-2.458 12.133,-1.946 3.396,0.59 0.491,0.973 4.312,1.264 -3.345,-5.442 -13.248,-4.653 -20.181,-2.408l-1.229 34.503z"/>
   <path class="fil8" d="M931.459 333.791c3.666,0.938 2.296,1.939 7.644,1.009 3.14,-0.54 6.195,-1.087 8.745,-1.492 7.914,-1.25 8.397,-2.87 10.4,-9.995 1.478,-5.271 2.003,-11.849 6.621,-13.767 3.282,-1.371 13.888,-3.147 17.624,-1.591l-0.504 -3.211c-2.806,-0.519 -19.138,2.046 -22.107,2.997 -3.438,5.698 -2.55,16.893 -6.294,21.88 -4.184,2.586 -17.411,1.677 -22.129,4.17z"/>
   <path class="fil8" d="M1003.499 285.507c1.428,4.887 9.036,32.556 8.482,35.668 1.513,-0.305 0.625,1.513 0.987,-2.323 0.136,-1.463 -0.199,-2.607 -0.419,-3.715l-4.802 -19.699c-2.181,-8.681 -4.454,-16.474 -6.678,-25.268l-6.372 -25.581c-0.966,-3.75 -4.582,-22.221 -7.707,-24.331l16.509 65.249z"/>
   <path class="fil8" d="M734.543 329.032l-0.071 7.814 5.328 -1.016 -2.891 0c0,-12.879 -2.28,-14.293 19.827,-16.879 11.991,-1.399 12.048,-2.231 12.126,-15.756 0.014,-2.053 0.384,-4.696 -0.306,-6.5 -1.122,-2.919 0.114,-0.369 -1.194,-1.655 -0.099,4.838 0.278,16.261 -1.115,19.848l-30.979 5.065 -0.725 9.079z"/>
   <path class="fil8" d="M287.07 432.363c9.569,0.902 2.6,1.691 16.325,-0.476 7.48,-1.187 9.277,-2.749 9.341,-11.053 0.057,-7.481 0.668,-12.702 0.654,-19.742 -0.007,-3.296 -0.178,-6.763 0.262,-9.93 0.732,-5.208 0.1,-4.228 2.451,-7.744 1.464,0.384 0.91,0.114 2.16,0.675 -1.314,-2.728 -5.186,-7.573 -5.804,-9.107 -1.073,9.754 -0.177,48.483 -2.458,53.59l-22.931 3.787z"/>
   <path class="fil8" d="M709.794 367.783c3.069,0.071 4.084,0.987 8.027,0.66 2.089,-0.17 5.932,-0.852 7.729,-1.143l43.354 -6.927c2.408,-1.022 1.641,-0.589 2.671,-2.4 -8.397,1.292 -58.613,8.154 -61.781,9.81z"/>
   <path class="fil8" d="M627.745 360.984l-0.518 18.882c2.692,-1.286 2.316,-3.417 2.28,-9.356 -0.043,-6.449 1.13,-30.822 2.032,-34.68l3.36 0c-1.279,-2.749 -3.943,-7.196 -6.003,-8.994l-1.151 34.148z"/>
   <path class="fil8" d="M739.985 294.358c-2.97,-1.058 -2.096,-8.631 -0.235,-10.748 3.069,-3.488 18.236,-4.653 23.188,-5.37 2.535,-0.362 3.771,-0.412 5.902,-0.895 5.399,-1.215 4.163,-2.124 4.44,-3.048l-36.251 5.548c-0.376,2.281 -0.873,0.057 -0.994,7.033 -0.042,2.486 -0.1,5.001 -0.106,7.48 2.891,1.222 0.646,0.419 2.266,0.391 1.278,-0.022 1.144,-0.135 1.79,-0.391z"/>
   <path class="fil1" d="M152.276 199.863c0,8.028 12.233,8.504 12.233,0 0,-8.04 -12.233,-8.04 -12.233,0z"/>
   <path class="fil1" d="M35.349 152.958c-4.057,0 -7.8,1.364 -7.041,6.478 0.455,3.069 3.496,5.655 6.28,5.57 7.438,-0.228 8.169,-12.048 0.761,-12.048z"/>
   <path class="fil8" d="M968.037 285.962c-0.206,-3.176 -0.789,-2.686 -0.192,-5.364l4.952 -15.472c2.116,0.561 0.411,-0.142 1.975,0.682 -0.399,-3.758 -0.882,-9.505 -2.65,-12.382l-8.084 33.04 3.999 -0.504z"/>
   <path class="fil1" d="M89.053 148.88c0,8.581 10.194,8.844 10.194,0.682 0,-6.877 -10.194,-5.64 -10.194,-0.682z"/>
   <path class="fil1" d="M60.502 200.546c7.282,0 7.204,-10.194 0,-10.194 -7.032,0 -7.032,10.194 0,10.194z"/>
   <path class="fil1" d="M74.774 174.717c10.01,0 8.184,-10.202 0.682,-10.202 -5.541,0 -5.967,10.202 -0.682,10.202z"/>
   <path class="fil8" d="M826.644 277.43c-0.128,-0.114 -0.334,-0.441 -0.391,-0.327 -0.014,0.035 -3.175,-2.003 -1.456,-5.597 4.084,-8.525 21.858,-0.405 23.826,-0.257 -3.886,-3.672 -14.343,-6.25 -19.145,-5.974 -10.059,0.59 -11.195,9.818 -2.834,12.155z"/>
   <path class="fil8" d="M850.945 271.924c4.632,-2.131 4.512,-4.581 7.651,-10.868 2.942,-5.875 4.071,-8.703 4.071,-14.84 -2.039,2.649 -10.251,21.439 -11.722,25.708z"/>
   <path class="fil1" d="M118.285 174.035c0,6.521 8.837,6.422 8.837,0 0,-5.108 -8.837,-5.037 -8.837,0z"/>
   <path class="fil1" d="M182.865 213.461c7.977,0 2.756,-13.718 -3.403,-7.46 -3.012,3.062 0.135,7.46 3.403,7.46z"/>
   <path class="fil1" d="M140.719 67.982c0,1.606 1.328,3.027 2.038,4.079l4.76 0c2.379,-2.75 2.038,-1.713 2.038,-6.117 -2.848,-2.472 -1.754,-2.039 -6.798,-2.039 -0.71,1.051 -2.038,2.472 -2.038,4.077z"/>
   <path class="fil1" d="M68.658 106.052c0,1.605 1.336,3.025 2.039,4.077l4.759 0c2.785,-4.156 2.785,-3.992 0,-8.155l-4.759 0c-0.703,1.051 -2.039,2.472 -2.039,4.078z"/>
   <path class="fil1" d="M156.354 84.3c0,10.194 8.837,5.42 8.837,2.039 0,-0.611 -2.316,-8.915 -8.837,-2.039z"/>
   <path class="fil1" d="M123.719 93.812l0 4.759c9.782,6.557 10.28,-6.798 4.085,-6.798 -1.606,0 -3.026,1.336 -4.085,2.039z"/>
   <path class="fil8" d="M989.085 324.954c4.526,2.117 13.142,0.284 18.236,-0.824 5.399,-1.186 4.326,-1.52 4.66,-2.955l-22.896 3.779z"/>
   <path class="fil8" d="M771.895 357.582c0.959,-0.526 1.009,-0.085 1.719,-0.682 0.071,-2.991 1.634,-14.45 0.27,-19.301 -0.895,-3.211 -0.945,-2.394 -0.945,-6.529l-2.721 0.27 2.395 -0.113 -0.718 26.355z"/>
   <path class="fil8" d="M602.492 384.093c10.499,0 2.507,2.025 19.72,-1.165 4.447,-0.832 4.198,-0.988 5.015,-3.062l-24.735 4.227z"/>
   <path class="fil1" d="M0 167.236c0,5.336 0.099,5.435 5.434,5.435 2.216,-4.192 1.314,-3.41 0.682,-6.117 -2.223,-0.532 -2.408,-1.541 -6.116,0.682z"/>
   <path class="fil1" d="M167.23 50.309c0,3.274 1.292,3.643 3.395,4.759 1.521,-0.803 2.053,-1.137 3.403,-2.039l0 -4.085c-5.903,-3.119 -6.798,1.315 -6.798,1.365z"/>
   <path class="fil8" d="M773.28 274.297c2.991,-1.535 2.394,-6.301 2.38,-9.163 -0.021,-3.858 -0.007,-7.709 -0.007,-11.565l-1.527 -0.676 -0.846 21.404z"/>
   <path class="fil1" d="M144.796 237.258l0 2.039c1.35,0.902 1.883,1.236 3.396,2.038 1.52,-0.802 2.052,-1.136 3.402,-2.038l0 -3.403c-1.058,-0.703 -2.479,-2.038 -4.077,-2.038 -0.732,0 -2.721,1.989 -2.721,3.402z"/>
   <path class="fil1" d="M163.152 218.902c-1.044,4.362 -0.966,1.314 0,5.434 9.491,2.217 6.259,-6.116 3.396,-6.116 -1.073,0 -2.572,0.363 -3.396,0.682z"/>
   <path class="fil1" d="M124.401 202.585c0,1.513 -0.234,1.207 0.433,2.287 0.839,1.35 0.122,0.576 1.606,1.115 0,2.16 4.759,-0.895 4.759,-2.046 0,-1.832 -0.327,-1.868 -0.681,-3.395 -0.831,-0.192 -6.117,-2.21 -6.117,2.039z"/>
   <path class="fil8" d="M833.051 314.753c-0.76,-1.2 0.106,-0.526 -1.399,-1.612 -0.575,-0.413 -1.734,-0.853 -2.33,-1.08 -1.74,-0.661 -3.488,-1.13 -5.569,-1.542l-14.791 -4.127c0.945,1.541 0.022,0.853 1.805,1.819l22.284 6.542z"/>
   <path class="fil1" d="M108.766 196.469c-0.192,2.273 -0.675,2.251 -0.149,3.558 1.278,3.19 4.439,1.464 5.59,1.201 0.696,-2.643 1.357,-1.584 -0.682,-5.441l-4.759 0.682z"/>
   <path class="fil1" d="M105.505 72.195l-0.135 2.585c1.776,1.457 1.222,1.357 4.078,1.357 1.456,-1.782 1.357,-1.221 1.357,-4.076 -1.784,-1.457 -1.229,-1.357 -4.078,-1.357l-1.222 1.491z"/>
   <path class="fil1" d="M40.783 184.228c0,8.674 5.441,3.005 5.441,2.039 0,-2.209 -1.932,-2.621 -3.402,-3.395 -0.114,0.106 -0.292,0.121 -0.349,0.32l-1.69 1.036z"/>
   <path class="fil1" d="M63.216 133.927c0.419,1.783 0.618,1.996 1.364,3.395 3.581,0 4.078,0.298 4.078,-2.72 0,-0.945 -0.952,-4.291 -4.426,-1.705l-1.016 1.03z"/>
   <path class="fil1" d="M105.37 224.336c0,1.932 2.629,2.046 4.753,2.046l0.682 -4.085c-1.4,-0.738 -1.613,-0.937 -3.396,-1.357l-0.711 0.647c-0.809,0.995 -1.328,1.279 -1.328,2.749z"/>
   <path class="fil1" d="M87.689 211.422l1.399 2.699c7.594,0.114 2.835,-5.42 2.004,-5.42 -1.919,0 -2.622,1.563 -3.403,2.721z"/>
   <path class="fil1" d="M104.006 117.609c0,2.899 4.76,2.899 4.76,0 0,-3.601 -4.76,-3.516 -4.76,0z"/>
   <path class="fil1" d="M150.912 157.035c0,2.657 4.76,4.831 4.76,0 0,-3.737 -4.76,-1.64 -4.76,0z"/>
   <path class="fil1" d="M17.674 185.592c0,5.116 4.76,1.975 4.76,0.675 0,-3.005 -4.76,-4.12 -4.76,-0.675z"/>
   <path class="fil1" d="M25.829 114.889c0,3.737 4.76,1.64 4.76,0 0,-3.602 -4.76,-3.516 -4.76,0z"/>
   <path class="fil1" d="M195.78 232.498c0,3.148 7.522,3.432 3.403,-2.72 -1.727,0.405 -3.403,0.568 -3.403,2.72z"/>
   <path class="fil1" d="M52.34 171.314l0.668 0.732c2.032,1.711 1.677,1.193 4.092,0.625 0,-5.527 -2.671,-5.562 -4.76,-1.357z"/>
   <path class="fil1" d="M6.792 140.725c3.046,4.539 4.758,0.135 4.758,0 0,-2.131 -1.214,-1.925 -2.713,-2.721l-2.045 2.721z"/>
   <path class="fil8" d="M652.985 314.071l4.007 6.542 0.319 -10.62c-1.051,1.812 -0.625,4.036 -0.625,6.124 -1.421,-0.76 -2.287,-1.307 -3.701,-2.046z"/>
   <path class="fil8" d="M336.306 362.555c0.718,1.314 0.953,1.668 1.784,2.955 1.257,1.953 1.065,1.931 2.5,3.133l0.085 -7.076 -0.774 2.813 -2.202 -1.201c-0.128,-0.064 -0.327,-0.163 -0.448,-0.22l-0.945 -0.404z"/>
  </g>
 </g>
</svg>
